<mxfile host="65bd71144e">
    <diagram id="g2QZxc0-LW6Cm-0HgTpp" name="Page-1">
        <mxGraphModel dx="1952" dy="715" grid="1" gridSize="10" guides="1" tooltips="1" connect="1" arrows="1" fold="1" page="1" pageScale="1" pageWidth="850" pageHeight="1100" math="0" shadow="0">
            <root>
                <mxCell id="0"/>
                <mxCell id="1" parent="0"/>
                <mxCell id="2" value="Pool" style="swimlane;childLayout=stackLayout;resizeParent=1;resizeParentMax=0;startSize=20;html=1;" vertex="1" parent="1">
                    <mxGeometry x="-80" y="60" width="600" height="480" as="geometry"/>
                </mxCell>
                <mxCell id="3" value="Cliente" style="swimlane;startSize=20;html=1;" vertex="1" parent="2">
                    <mxGeometry y="20" width="120" height="460" as="geometry"/>
                </mxCell>
                <mxCell id="4" value="Lane 2" style="swimlane;startSize=20;html=1;" vertex="1" parent="2">
                    <mxGeometry x="120" y="20" width="120" height="460" as="geometry"/>
                </mxCell>
                <mxCell id="5" value="Lane 3" style="swimlane;startSize=20;html=1;" vertex="1" parent="2">
                    <mxGeometry x="240" y="20" width="120" height="460" as="geometry"/>
                </mxCell>
                <mxCell id="6" value="Lane 3" style="swimlane;startSize=20;html=1;" vertex="1" parent="2">
                    <mxGeometry x="360" y="20" width="120" height="460" as="geometry"/>
                </mxCell>
                <mxCell id="7" value="Lane 3" style="swimlane;startSize=20;html=1;" vertex="1" parent="2">
                    <mxGeometry x="480" y="20" width="120" height="460" as="geometry"/>
                </mxCell>
            </root>
        </mxGraphModel>
    </diagram>
</mxfile>